<?xml version="1.0" standalone="no"?>
<!DOCTYPE svg PUBLIC "-//W3C//DTD SVG 20010904//EN"
 "http://www.w3.org/TR/2001/REC-SVG-20010904/DTD/svg10.dtd">
<svg version="1.0" xmlns="http://www.w3.org/2000/svg"
 width="1024.000000pt" height="1024.000000pt" viewBox="0 0 1024.000000 1024.000000"
 preserveAspectRatio="xMidYMid meet">
<metadata>
Created by potrace 1.14, written by Peter Selinger 2001-2017
</metadata>
<g transform="translate(0.000000,1024.000000) scale(0.100000,-0.100000)"
fill="#000000" stroke="none">
<path d="M2960 9318 c-64 -11 -131 -47 -176 -94 -23 -24 -41 -37 -41 -29 0 8
20 35 43 60 24 25 39 45 34 45 -17 0 -82 -75 -108 -125 -26 -49 -26 -53 -32
-330 -4 -154 -6 -613 -5 -1020 l1 -740 54 -55 c160 -160 188 -395 88 -720 -35
-114 -38 -121 -58 -110 -15 8 -19 4 -24 -21 -3 -17 -3 -36 1 -43 4 -6 -2 -4
-12 4 -17 14 -18 13 -11 -5 17 -43 19 -51 8 -36 -13 18 -33 5 -25 -16 5 -12 2
-15 -10 -10 -13 5 -17 1 -17 -19 0 -46 -17 -64 -63 -65 -23 -1 -55 -5 -72 -9
-23 -6 -15 -8 36 -9 l66 -1 5 -492 c4 -429 -6 -1215 -17 -1288 -2 -14 -4 -55
-4 -92 -1 -55 -4 -67 -18 -71 -17 -4 -17 -5 0 -6 31 -2 18 -21 -15 -22 -25 -1
-28 -3 -13 -7 25 -9 27 -48 2 -46 -9 1 -17 -4 -17 -12 0 -8 -5 -14 -12 -14 -6
0 -8 -3 -5 -6 4 -4 13 -1 22 6 28 23 27 2 -2 -24 -15 -14 -24 -26 -19 -26 5 0
3 -7 -4 -15 -9 -11 -9 -15 -1 -15 7 0 9 -5 6 -10 -4 -6 -11 -8 -16 -5 -10 7
-29 -35 -22 -48 3 -5 -4 -15 -15 -23 -12 -8 -19 -21 -16 -29 4 -11 -1 -15 -16
-15 -16 0 -20 -4 -16 -15 3 -8 0 -15 -6 -15 -6 0 -5 -6 3 -17 13 -15 11 -16
-13 -11 -23 4 -27 2 -25 -16 1 -15 -4 -22 -21 -24 -12 -2 -20 -8 -16 -13 3 -5
-4 -21 -15 -35 -12 -15 -21 -23 -21 -19 0 4 -7 2 -15 -5 -13 -11 -13 -15 -3
-22 8 -5 3 -7 -15 -4 -16 3 -36 2 -44 -1 -14 -6 -14 -7 3 -14 17 -6 16 -8 -8
-18 -30 -11 -36 -26 -15 -35 6 -3 -1 -3 -18 1 -16 3 -27 3 -24 -1 4 -4 -6 -21
-22 -39 -34 -37 -35 -44 -11 -50 9 -2 2 -4 -15 -4 -18 0 -33 4 -33 8 0 4 -6
14 -14 22 -8 8 -29 36 -45 63 -17 26 -31 42 -31 36 0 -26 55 -120 185 -314 74
-110 135 -204 135 -209 0 -5 -4 -9 -10 -9 -5 0 -9 -10 -9 -22 1 -17 2 -19 6
-5 2 9 9 17 15 17 5 0 8 -6 5 -14 -3 -7 0 -19 6 -25 6 -6 7 -12 1 -12 -5 -1
-16 -2 -24 -3 -9 0 -14 -9 -12 -23 2 -15 -4 -24 -25 -31 -16 -6 -21 -11 -11
-11 26 -1 48 10 48 25 0 8 7 14 15 14 20 0 19 -16 -1 -24 -10 -4 -14 -14 -11
-26 6 -22 -8 -28 -16 -7 -5 11 -66 -48 -67 -65 0 -14 28 -8 34 7 5 15 36 21
36 7 0 -13 -44 -36 -64 -33 -14 2 -17 -1 -12 -15 6 -15 4 -15 -10 -3 -10 8
-12 15 -5 17 7 2 7 7 -1 16 -9 10 -16 8 -30 -6 -22 -22 -23 -26 0 -24 13 1 16
-5 14 -28 -3 -22 0 -27 12 -23 18 7 20 -1 7 -22 -5 -8 -11 -9 -15 -3 -8 13
-56 9 -65 -6 -4 -7 -7 4 -7 22 0 19 4 32 8 30 4 -3 8 0 8 6 0 7 -7 9 -16 6 -9
-3 -20 -6 -25 -6 -5 0 -2 -11 7 -25 20 -31 13 -32 -20 -2 -32 29 -86 70 -86
64 0 -10 193 -172 202 -169 5 1 7 -1 4 -6 -2 -4 30 -39 72 -77 42 -39 158
-144 257 -235 99 -91 216 -197 260 -235 44 -39 113 -102 153 -140 91 -87 103
-94 116 -70 70 116 220 275 356 375 97 72 205 126 270 136 41 7 44 6 31 -9 -7
-10 -10 -17 -5 -17 5 0 2 -5 -6 -11 -10 -7 -11 -9 -2 -7 8 2 12 6 10 9 -2 3 5
13 14 22 15 16 114 17 1332 17 766 0 1317 -4 1320 -9 8 -12 205 -125 361 -207
182 -95 249 -137 329 -208 67 -60 180 -215 192 -263 6 -23 24 -32 24 -13 0 6
4 9 8 8 8 -3 418 263 631 410 77 53 119 87 111 92 -8 5 -7 9 5 13 11 5 14 3 9
-5 -11 -17 20 -3 82 38 56 37 85 66 43 43 -13 -7 -28 -12 -32 -11 -5 1 -6 -3
-2 -10 4 -7 0 -5 -9 6 -8 10 -20 15 -26 11 -8 -5 -8 -10 0 -20 9 -10 6 -16 -9
-25 -14 -7 -21 -7 -21 0 0 5 3 10 8 10 6 0 8 34 3 70 0 6 -11 10 -23 9 -19 0
-20 -2 -6 -7 13 -5 15 -11 8 -22 -9 -13 -11 -13 -19 -1 -5 8 -16 11 -27 7 -10
-4 -21 -1 -26 6 -6 11 -10 10 -17 -1 -7 -11 -9 -11 -13 0 -3 8 2 19 11 26 11
8 -2 7 -38 -3 -49 -12 -55 -12 -67 4 -9 11 -16 13 -21 6 -12 -17 -41 -13 -36
5 4 20 -13 48 -24 37 -4 -5 -2 -11 5 -13 22 -8 12 -22 -15 -19 -14 2 -33 12
-41 22 -14 18 -14 18 -8 1 3 -10 6 -22 6 -27 0 -5 12 -11 28 -13 l27 -4 -27
-2 c-17 0 -37 8 -50 21 -13 13 -29 22 -35 20 -7 -2 -13 5 -13 15 0 15 -7 18
-45 15 -25 -2 -51 1 -58 7 -7 5 -23 8 -35 4 -15 -4 -27 0 -36 12 -8 11 -18 15
-26 10 -7 -4 -16 -2 -22 6 -8 11 -10 12 -15 1 -4 -10 -9 -8 -19 7 -8 11 -21
18 -29 15 -8 -4 -15 -1 -15 5 0 7 -6 11 -12 10 -7 -1 -21 1 -32 6 -12 5 -21 3
-26 -6 -5 -7 -12 -10 -16 -6 -4 3 4 16 17 27 l24 21 -25 -7 c-14 -4 -29 -12
-33 -18 -6 -7 -7 -4 -3 7 4 12 0 20 -12 23 -9 3 -24 9 -33 14 -8 4 -23 4 -32
-2 -14 -7 -16 -5 -14 13 1 12 -4 24 -13 26 -13 4 -13 3 0 -7 12 -9 9 -10 -13
-5 -16 3 -34 2 -41 -2 -7 -4 -4 -1 6 9 10 9 18 22 18 29 0 8 -7 6 -20 -6 -18
-17 -21 -17 -46 -1 -14 10 -31 15 -39 13 -7 -3 -17 -1 -23 5 -8 8 -16 8 -27
-2 -20 -16 -20 -3 0 17 13 13 18 13 32 1 14 -11 15 -11 11 2 -5 16 -23 17 -73
6 l-30 -6 28 11 c31 12 36 28 8 26 -11 0 -17 -5 -15 -9 3 -4 -2 -8 -10 -8 -10
0 -13 6 -10 15 4 9 0 15 -9 15 -8 0 -17 6 -20 13 -3 9 -7 9 -19 -1 -11 -9 -18
-10 -23 -2 -3 5 -15 10 -26 10 -10 0 -19 4 -19 8 0 5 -10 14 -22 20 -13 6 -17
11 -10 11 6 1 12 5 12 9 0 4 -19 7 -42 7 -24 -1 -49 2 -55 8 -7 5 -24 7 -37 5
-14 -3 -27 0 -29 6 -3 7 10 10 39 7 28 -2 44 1 44 8 0 6 -19 11 -42 12 -35 0
-39 2 -23 10 18 9 18 9 -2 4 -13 -3 -31 -8 -42 -11 -10 -3 -25 1 -33 9 -11 12
-24 13 -59 6 -64 -12 -65 -11 -35 16 29 26 20 33 -15 12 -17 -9 -23 -9 -26 1
-5 14 -33 17 -33 3 0 -5 7 -11 15 -15 16 -6 21 -26 6 -26 -5 0 -16 6 -23 13
-29 29 -68 48 -86 43 -11 -4 -24 0 -32 9 -7 8 -25 15 -41 15 -18 0 -32 7 -39
20 -6 11 -20 20 -30 20 -13 0 -20 7 -20 20 0 16 -7 20 -30 20 -21 0 -30 5 -30
16 0 8 -4 13 -9 10 -4 -3 -19 3 -31 14 -13 11 -27 20 -32 20 -5 0 -20 12 -34
28 -14 15 -30 28 -35 28 -5 1 -12 3 -16 4 -5 1 -11 2 -15 1 -5 0 -8 9 -8 22
-1 20 -2 20 -11 4 -12 -21 -33 -23 -25 -2 3 9 -1 18 -9 21 -8 4 -15 10 -15 15
0 5 -8 18 -17 29 -10 11 -17 24 -15 28 2 4 -7 10 -20 13 -13 3 -22 11 -21 17
2 7 -1 12 -6 12 -5 0 -13 9 -16 20 -3 11 -12 20 -19 20 -12 0 -106 92 -106
104 0 3 -9 15 -19 25 -14 14 -21 16 -25 8 -4 -7 -4 -2 -2 11 3 14 0 20 -7 15
-6 -4 -8 0 -4 10 4 12 2 14 -10 10 -13 -5 -15 -2 -9 13 26 63 19 66 -22 10
-12 -16 -22 -24 -22 -17 0 6 -7 11 -15 11 -8 0 -15 3 -15 8 0 10 -49 31 -63
28 -7 -1 -9 -1 -4 1 11 7 -2 23 -19 23 -9 0 -32 12 -52 27 -20 16 -31 20 -23
10 17 -21 8 -22 -24 -1 -28 19 -25 31 25 82 50 50 92 41 193 -44 42 -35 58
-28 17 7 -61 53 -108 79 -145 79 -29 0 -45 -9 -87 -50 -28 -28 -55 -50 -59
-50 -4 0 -13 15 -19 34 -16 49 3 106 51 153 128 128 404 105 623 -51 34 -24
118 -107 186 -183 68 -76 157 -169 197 -208 65 -63 75 -77 97 -143 l24 -74 4
41 c2 23 0 41 -4 41 -5 0 -8 7 -8 15 0 8 6 15 13 15 8 0 7 4 -3 10 -12 7 -12
13 -4 27 6 10 10 27 9 38 -3 34 -29 110 -40 117 -6 5 -6 8 3 8 7 0 12 14 12
36 0 29 -3 34 -13 26 -10 -9 -13 1 -14 50 -2 69 -18 124 -43 153 -10 11 -21
34 -25 52 -3 18 -22 69 -42 115 -19 46 -40 97 -45 113 -20 56 -26 70 -46 115
-11 25 -30 72 -43 105 -12 33 -26 62 -29 65 -13 10 -41 110 -34 121 5 9 -1 10
-20 5 -17 -4 -25 -3 -22 3 4 5 2 12 -4 16 -5 3 -10 17 -10 31 0 13 -5 24 -11
24 -5 0 -7 5 -4 10 3 6 -1 17 -9 26 -9 8 -16 22 -16 30 0 9 -14 44 -31 79 -17
35 -28 69 -24 75 3 5 2 10 -4 10 -5 0 -11 -3 -14 -7 -2 -5 -2 -3 -1 4 2 7 -8
31 -21 54 -13 23 -21 49 -17 57 3 10 1 13 -6 8 -8 -5 -10 -2 -6 8 3 9 1 16 -5
16 -6 0 -8 6 -5 14 3 7 -2 16 -10 19 -9 4 -16 15 -16 25 0 16 -73 148 -89 162
-23 19 -63 110 -56 127 2 8 1 12 -4 9 -20 -13 -121 260 -105 286 4 6 6 31 6
57 0 34 2 41 8 26 9 -20 9 -20 9 0 1 11 8 30 16 41 8 12 11 25 7 29 -4 5 -2 5
4 2 6 -3 21 7 33 23 14 19 31 30 46 30 14 0 25 4 25 9 0 5 22 11 50 15 64 9
125 -18 189 -82 45 -45 98 -142 202 -372 23 -50 35 -68 37 -54 2 11 46 63 99
115 219 214 385 467 462 702 13 37 26 67 30 67 12 0 51 -45 51 -59 0 -7 -21
-63 -46 -123 -95 -224 -272 -478 -457 -654 -60 -57 -114 -101 -119 -98 -5 3
-3 -9 5 -28 55 -125 112 -246 189 -400 l88 -177 24 24 c36 36 126 58 213 53
60 -4 87 -12 150 -44 55 -28 77 -35 81 -26 8 24 46 54 102 80 43 20 71 26 130
26 71 1 149 -16 178 -37 7 -6 15 -7 19 -3 3 3 1 6 -5 6 -8 0 -8 8 -1 30 6 17
18 30 26 30 12 0 13 3 4 14 -9 11 -9 16 0 22 8 4 9 3 5 -4 -4 -7 -2 -12 3 -12
6 0 12 8 13 18 0 9 2 22 2 28 1 6 7 18 14 26 7 9 9 24 6 34 -4 11 -3 15 1 11
5 -4 17 12 26 35 32 78 27 81 -58 32 -97 -55 -115 -57 -35 -3 34 23 82 63 107
90 46 49 46 49 28 74 -10 13 -25 25 -34 25 -9 0 -19 3 -22 6 -4 4 -25 8 -48
10 -37 4 -46 0 -83 -34 -63 -58 -113 -85 -162 -87 -23 0 -41 2 -39 5 2 4 -12
6 -31 6 -23 -1 -33 -5 -29 -13 3 -8 -5 -13 -20 -13 -13 0 -27 -4 -30 -10 -3
-5 -15 -10 -25 -10 -10 0 -25 -7 -33 -15 -12 -12 -17 -12 -26 -1 -43 52 -54
172 -21 244 45 98 200 205 387 267 75 24 90 34 164 105 51 48 79 82 74 89 -4
7 -12 10 -18 8 -7 -2 -27 4 -46 14 -19 10 -38 16 -44 12 -5 -3 -19 0 -31 6
-19 11 -27 7 -66 -29 -24 -22 -72 -55 -107 -72 -60 -29 -82 -32 -126 -13 -14
6 -16 4 -10 -11 6 -16 5 -17 -9 -6 -14 11 -24 10 -61 -7 -27 -12 -55 -18 -73
-15 -23 4 -27 3 -16 -7 15 -16 16 -33 2 -24 -27 17 -60 106 -60 163 0 157 154
296 428 387 70 23 110 43 157 80 35 28 69 59 76 70 11 18 10 18 -3 7 -9 -7
-18 -9 -20 -5 -4 11 -80 48 -95 46 -7 0 -13 3 -13 9 0 12 -59 5 -68 -8 -9 -13
-85 -64 -134 -89 -33 -17 -43 -18 -84 -7 -41 11 -54 10 -98 -5 -28 -10 -54
-22 -58 -28 -5 -6 -8 -5 -8 3 0 20 -18 14 -25 -9 -6 -19 -8 -19 -30 11 -13 18
-29 54 -35 82 -30 124 33 236 196 344 105 70 229 123 307 131 l59 6 -5 39 c-7
50 -10 53 -39 34 -25 -17 -108 -48 -108 -41 0 3 23 16 51 31 48 24 209 168
209 187 0 4 -4 5 -10 2 -5 -3 -10 0 -10 8 0 17 -81 43 -105 34 -8 -4 -15 -2
-15 4 0 6 -19 -10 -42 -35 -64 -68 -149 -115 -206 -114 -30 1 -62 -7 -89 -20
-23 -12 -51 -22 -63 -22 -11 0 -20 -4 -20 -10 0 -25 -22 -6 -49 42 -74 130
-38 264 106 399 26 25 70 60 96 78 l49 33 -4 932 -3 931 -23 49 c-30 66 -65
111 -115 147 -61 44 -61 35 0 -24 43 -41 53 -56 42 -62 -8 -5 -11 -5 -7 -1 9
10 -85 74 -137 93 -35 13 -294 15 -1982 16 -1068 1 -1960 -1 -1983 -5z m3952
-60 c54 -24 124 -93 150 -146 20 -42 23 -65 26 -216 4 -161 -7 -940 -13 -934
-4 4 -15 378 -24 773 -6 283 -9 324 -25 355 -25 49 -74 98 -121 123 l-40 22
-1945 0 -1945 0 -40 -21 c-55 -30 -94 -70 -119 -124 -20 -44 -21 -62 -26 -627
-3 -320 -8 -585 -12 -589 -4 -4 -11 2 -15 12 -5 10 -8 278 -8 594 0 535 1 578
18 620 38 92 107 151 198 169 24 5 912 8 1974 7 1781 -1 1933 -2 1967 -18z
m-226 -339 c11 -6 28 -24 38 -40 20 -33 15 -62 -17 -96 -20 -23 -24 -23 -268
-23 -213 0 -248 2 -260 16 -9 11 -10 20 -2 32 18 30 233 29 233 -1 0 -18 251
-17 273 2 20 16 22 52 5 69 -15 15 -269 17 -284 2 -7 -7 -54 -10 -120 -8 -106
3 -109 4 -112 27 -2 13 2 28 10 33 17 12 477 0 504 -13z m-3119 -21 c30 -28
32 -89 3 -118 -19 -19 -31 -20 -213 -18 l-192 3 -18 36 c-14 29 -15 42 -7 64
20 52 31 54 224 55 171 0 181 -1 203 -22z m1418 -142 c30 -46 62 -87 72 -90
10 -3 50 -10 88 -16 89 -14 107 -19 99 -31 -3 -6 0 -18 8 -27 11 -15 11 -16
-3 -4 -13 10 -19 9 -29 -3 -11 -13 -10 -15 6 -9 10 3 5 -3 -11 -13 -17 -11
-45 -36 -62 -56 l-33 -37 7 -124 6 -125 -94 35 c-52 18 -101 34 -110 34 -8 0
-55 -13 -104 -30 -49 -16 -90 -30 -92 -30 -2 0 -3 40 -3 89 l0 89 -27 -3
c-205 -24 -546 -149 -700 -258 -29 -20 -56 -37 -59 -37 -3 0 -18 -10 -33 -22
-15 -13 -40 -32 -56 -43 -15 -11 -49 -39 -74 -62 -25 -24 -49 -43 -53 -43 -5
0 -8 -7 -8 -15 0 -8 -4 -15 -10 -15 -5 0 -30 -20 -54 -44 -25 -24 -48 -41 -52
-37 -4 3 -4 1 -1 -5 4 -6 -5 -21 -18 -34 -13 -13 -22 -27 -19 -31 3 -5 -2 -6
-10 -3 -9 3 -17 -3 -22 -18 l-7 -23 -10 23 c-6 12 -16 22 -23 22 -21 0 -65 42
-60 57 3 7 -1 10 -9 7 -12 -5 -12 -9 0 -28 14 -21 12 -36 -6 -36 -5 0 -6 6 -3
14 9 24 -12 27 -32 3 -16 -18 -16 -19 -1 -8 9 7 17 9 17 4 0 -13 -40 -49 -40
-37 0 5 -19 -19 -41 -54 -22 -34 -37 -68 -33 -74 4 -6 3 -8 -4 -5 -6 4 -29
-27 -55 -75 -95 -177 -173 -425 -199 -629 l-12 -96 -34 -1 -35 -2 6 83 c15
192 95 461 195 656 133 260 282 451 507 646 166 143 391 271 626 353 80 28
409 113 492 127 34 5 43 14 92 91 30 46 57 84 60 84 3 0 30 -38 60 -84z m1527
-143 c25 -23 22 -50 -8 -69 -24 -17 -26 -16 -51 9 -25 25 -26 27 -9 51 19 30
42 33 68 9z m-3110 -60 c25 -22 23 -39 -7 -59 -24 -16 -27 -16 -45 1 -23 20
-26 45 -8 63 17 17 38 15 60 -5z m2043 -209 c83 -25 125 -43 128 -53 3 -11 7
-8 15 12 15 35 56 36 120 2 26 -14 53 -25 59 -25 7 0 13 -4 13 -10 0 -5 5 -10
12 -10 17 0 124 -75 180 -127 48 -44 75 -55 64 -28 -3 8 -3 22 0 30 5 11 16 4
47 -28 22 -23 45 -41 50 -39 4 1 6 -2 2 -8 -3 -6 36 -67 87 -136 113 -152 206
-284 211 -298 2 -7 9 -6 20 2 9 8 33 18 53 22 l36 8 -5 -36 c-5 -36 -66 -252
-74 -262 -2 -2 -8 2 -13 10 -7 11 -10 12 -10 2 0 -7 -4 -11 -9 -7 -5 3 -29 9
-53 14 -63 14 -249 85 -251 96 -1 6 28 20 63 33 72 25 97 47 79 69 -6 7 -8 13
-4 13 12 0 -57 112 -112 184 -30 38 -52 75 -49 83 3 7 1 13 -5 13 -12 0 -69
57 -69 70 0 6 -5 10 -11 10 -7 0 -39 29 -73 63 -34 35 -83 78 -111 95 -61 37
-238 127 -244 123 -2 -1 -8 3 -12 11 -6 9 -10 3 -15 -19 -4 -18 -13 -33 -20
-33 -18 0 -18 11 1 36 23 30 18 42 -22 60 -42 17 -235 68 -300 79 -24 4 -46
12 -50 17 -13 22 147 0 272 -38z m-769 -9 c4 -14 4 -28 1 -31 -3 -3 -45 -14
-94 -25 -277 -60 -566 -211 -770 -404 -87 -81 -178 -189 -251 -297 -52 -75
-138 -255 -171 -356 -32 -95 -71 -271 -71 -316 0 -23 -4 -26 -35 -26 -32 0
-35 2 -35 31 0 55 39 224 76 330 86 248 209 444 399 635 174 175 358 296 580
384 69 27 316 97 352 99 7 1 15 -10 19 -24z m192 -197 l-3 -33 -75 -6 c-152
-13 -342 -70 -501 -150 -192 -96 -386 -260 -516 -435 -74 -101 -158 -262 -194
-374 -26 -81 -29 -85 -58 -88 -40 -4 -40 4 8 130 80 213 163 344 336 527 141
149 321 270 521 350 134 53 198 71 329 91 162 26 157 26 153 -12z m268 7 c49
-8 127 -27 174 -42 91 -29 323 -142 386 -189 57 -41 134 -116 134 -130 0 -7
-16 -22 -35 -34 -34 -21 -37 -21 -61 -5 -18 11 -25 24 -24 43 1 15 2 32 1 38
-2 16 -125 97 -226 147 -144 72 -330 122 -477 129 -47 2 -58 6 -62 22 -3 11
-3 23 0 28 8 13 92 10 190 -7z m12 -206 c57 -11 127 -29 155 -40 29 -12 72
-29 97 -38 68 -26 225 -137 312 -220 106 -100 197 -223 268 -363 77 -149 116
-256 129 -353 18 -124 17 -125 -28 -125 -76 0 -118 -66 -86 -135 10 -19 21
-35 26 -35 5 0 9 -4 9 -10 0 -5 -7 -10 -17 -10 -9 0 -13 -3 -10 -6 3 -4 2 -16
-4 -27 -8 -15 -8 -18 1 -12 9 5 10 1 6 -13 -6 -17 -2 -23 20 -28 22 -6 24 -8
11 -16 -9 -5 -14 -15 -11 -23 4 -9 0 -15 -10 -15 -9 0 -16 -6 -16 -14 0 -13
-38 -33 -49 -27 -2 2 -8 -4 -13 -13 -6 -11 -17 -14 -40 -9 -30 6 -31 5 -24
-21 6 -24 4 -26 -10 -18 -21 12 -142 -30 -162 -56 -8 -11 -15 -13 -20 -6 -10
15 -95 16 -89 1 3 -8 -8 -13 -30 -15 -19 -1 -47 -9 -64 -17 -16 -9 -29 -12
-29 -8 0 4 -7 -2 -15 -13 -13 -16 -16 -17 -25 -4 -5 8 -10 24 -10 35 -1 11
-10 -2 -20 -29 -24 -62 -37 -76 -46 -50 -4 10 -12 23 -18 27 -7 6 -4 7 7 3 21
-7 24 22 2 30 -15 6 -19 74 -4 74 5 0 11 16 15 35 3 19 10 38 15 41 11 7 12
34 1 34 -4 0 -13 -15 -20 -34 -20 -54 -109 -173 -161 -214 -26 -21 -74 -51
-107 -68 -54 -27 -68 -29 -165 -29 -100 0 -108 2 -174 35 -83 42 -149 104
-208 196 -52 81 -71 134 -64 177 3 18 3 26 0 18 -4 -10 -9 -8 -20 10 -13 23
-14 23 -8 1 4 -12 8 -32 9 -45 4 -26 12 -49 36 -102 17 -39 37 -170 39 -270 1
-27 9 -72 17 -98 18 -54 61 -110 76 -100 6 3 8 2 5 -4 -14 -22 110 -102 134
-87 8 4 9 3 5 -4 -4 -7 -1 -13 6 -14 7 0 18 -2 23 -2 6 -1 16 -5 24 -10 7 -5
43 -10 80 -11 41 -1 47 -1 16 2 -79 7 -71 18 13 20 49 1 71 -1 62 -7 -20 -13
-4 -12 43 1 36 10 38 11 20 25 -16 13 -16 13 9 4 29 -10 58 -4 58 12 0 5 3 7
8 4 11 -7 103 63 101 77 -3 24 1 37 12 37 6 0 8 -8 5 -17 -4 -11 4 -7 19 10
14 16 23 33 19 38 -3 6 2 16 11 23 20 15 33 129 17 149 -7 8 -7 18 -2 27 6 8
10 10 10 4 0 -7 19 -32 43 -56 24 -24 60 -74 81 -111 21 -37 42 -69 47 -73 35
-21 -20 -208 -134 -450 -77 -165 -247 -475 -261 -478 -4 0 -26 70 -47 157
l-40 158 45 47 c24 26 59 67 76 91 29 39 30 45 16 59 -14 14 -20 11 -63 -33
-76 -76 -132 -115 -166 -115 -31 0 -75 38 -161 140 -21 25 -35 37 -32 27 3
-10 2 -16 -3 -13 -5 3 -14 0 -20 -8 -8 -10 -2 -27 28 -72 21 -32 53 -74 71
-93 l32 -34 -36 -151 c-19 -83 -36 -159 -38 -169 -2 -10 -37 45 -85 130 -164
297 -280 550 -322 703 l-21 74 24 36 c13 19 43 67 66 105 24 39 53 79 66 90
13 11 24 29 23 40 0 19 -1 18 -9 -2 -12 -29 -52 -20 -49 11 3 38 -1 48 -15 43
-8 -3 -16 0 -19 7 -3 8 -33 13 -93 14 -49 0 -124 4 -166 8 -68 5 -78 9 -78 25
0 18 -5 19 -52 14 -29 -4 -63 -11 -75 -17 -19 -10 -26 -7 -43 13 -17 19 -23
21 -30 9 -10 -16 -12 -15 -28 15 -11 19 -11 18 -12 -8 0 -16 -4 -26 -10 -22
-5 3 -7 12 -4 19 3 8 0 17 -6 21 -7 4 -14 -2 -17 -14 -7 -26 -18 -27 -36 -1
-13 18 -15 19 -21 5 -3 -9 -4 -21 0 -26 3 -5 0 -9 -6 -9 -14 0 -4 53 11 58 14
5 11 22 -3 20 -7 -2 -12 3 -10 10 1 8 -2 11 -8 7 -6 -4 -8 -16 -4 -27 4 -14 3
-18 -5 -14 -6 4 -11 17 -10 29 4 41 -1 67 -11 67 -13 0 -6 -43 20 -141 24 -89
71 -197 120 -280 43 -70 184 -239 200 -239 5 0 25 8 45 17 19 9 38 13 42 10
14 -15 -65 -80 -172 -141 -218 -126 -331 -186 -348 -186 -15 0 -16 -3 -6 -22
24 -45 116 -142 209 -221 253 -212 513 -334 830 -388 144 -24 187 -45 71 -35
-277 24 -580 144 -817 322 -152 114 -370 354 -322 354 8 0 24 7 36 16 l23 16
-36 40 c-87 95 -205 304 -265 468 -33 90 -74 253 -84 333 -5 42 -3 47 13 47
11 0 26 3 35 6 11 4 16 -4 21 -33 29 -177 59 -282 115 -413 60 -140 173 -323
233 -379 l26 -23 43 24 c36 20 80 46 97 55 2 2 -8 15 -24 30 -71 71 -209 276
-230 343 -7 23 9 50 30 50 7 0 38 -47 70 -105 62 -113 179 -268 208 -273 10
-2 46 13 82 34 l64 37 -81 86 c-170 179 -256 367 -288 631 -12 104 -13 120 -1
120 5 0 13 -30 17 -67 6 -64 8 -66 22 -45 10 15 24 22 48 22 19 0 34 5 34 10
0 6 11 10 24 10 29 0 46 19 19 21 -17 1 -17 2 0 6 22 6 22 15 -2 33 -20 13
-20 14 2 24 57 29 61 117 8 149 -21 12 -51 17 -105 17 -54 0 -76 4 -76 13 0
38 35 186 66 277 93 271 249 483 472 640 145 103 288 167 467 210 134 33 320
32 493 -1z m-1688 -204 c0 -8 -7 -15 -15 -15 -8 0 -15 7 -15 15 0 8 7 15 15
15 8 0 15 -7 15 -15z m2491 -80 c28 -36 55 -62 60 -59 5 3 8 2 7 -3 -2 -5 6
-26 17 -47 l20 -38 -24 -19 c-28 -23 -49 -22 -65 3 -8 13 -8 23 2 38 14 23 6
44 -27 74 -17 15 -24 17 -33 8 -24 -24 -58 -8 -58 28 0 15 33 20 49 8 13 -11
13 -9 -2 14 -19 30 -22 58 -7 58 5 0 33 -29 61 -65z m-2611 15 c0 -5 -2 -10
-4 -10 -3 0 -8 5 -11 10 -3 6 -1 10 4 10 6 0 11 -4 11 -10z m2794 -406 c50
-108 89 -258 102 -391 l7 -73 -30 0 -30 0 -7 83 c-7 98 -30 187 -79 320 -21
53 -37 102 -37 107 0 6 11 10 24 10 20 0 29 -10 50 -56z m424 -24 c20 -57 40
-159 56 -292 l6 -48 -39 0 c-38 0 -38 0 -39 43 -3 79 -43 269 -62 292 -11 13
28 77 44 72 6 -2 21 -32 34 -67z m100 -394 c18 -9 46 -35 62 -58 25 -34 30
-50 30 -100 0 -67 -13 -100 -36 -91 -8 3 -23 -2 -33 -11 -20 -18 -117 -32
-157 -22 -14 4 -41 21 -59 39 -58 55 -65 60 -66 45 -1 -7 -1 -22 0 -33 0 -13
-5 -7 -15 15 -33 73 7 178 83 220 46 25 140 23 191 -4z m-3273 -26 c61 -38 93
-137 63 -193 -15 -29 -66 -74 -105 -93 -27 -13 -41 -14 -88 -4 -51 11 -59 16
-87 58 -26 42 -29 54 -26 109 3 53 9 68 33 94 60 63 138 74 210 29z m-373
-290 c25 -280 72 -487 159 -694 108 -257 232 -451 416 -646 280 -298 640 -491
1050 -561 67 -11 71 -13 77 -42 3 -17 4 -33 1 -35 -8 -8 -155 17 -260 44 -256
66 -513 192 -700 342 -247 198 -449 447 -585 720 -77 156 -101 217 -149 379
-46 158 -69 297 -78 466 l-6 119 34 -4 34 -3 7 -85z m3233 38 c-37 -282 -154
-523 -349 -721 -37 -38 -66 -70 -64 -71 39 -30 130 -76 138 -71 20 12 161 187
192 237 16 26 34 46 39 43 5 -4 6 0 3 8 -3 8 -1 18 5 22 6 3 14 0 17 -8 8 -23
-90 -174 -182 -284 l-42 -48 62 -37 c33 -20 68 -39 76 -42 15 -6 57 47 152
191 103 156 211 412 225 533 l6 50 44 0 c48 0 46 9 21 -95 -44 -186 -173 -439
-308 -605 -20 -25 -47 -60 -60 -79 l-23 -34 34 -28 c19 -16 40 -26 47 -24 20
7 4 -16 -81 -114 -43 -50 -84 -91 -91 -91 -7 0 5 18 26 41 94 99 131 159 98
159 -5 0 -81 40 -167 88 -87 49 -185 104 -218 122 -66 37 -127 89 -119 102 3
4 14 8 24 8 27 0 173 149 224 228 107 165 164 324 191 525 l6 47 41 0 40 0 -7
-52z m-148 -140 c-3 -8 -6 -5 -6 6 -1 11 2 17 5 13 3 -3 4 -12 1 -19z m-2543
-97 c22 -24 18 -49 -9 -67 -41 -27 -88 39 -53 74 18 18 42 15 62 -7z m993
-153 c-3 -7 -5 -2 -5 12 0 14 2 19 5 13 2 -7 2 -19 0 -25z m53 -20 c0 -12 -6
-9 -26 13 -19 22 -19 22 4 8 12 -8 22 -17 22 -21z m788 1 c12 -19 11 -19 -8
-9 -11 6 -20 15 -20 20 0 17 15 11 28 -11z m-2625 -16 c-3 -7 -6 -13 -8 -13
-2 0 -5 6 -8 13 -3 8 1 14 8 14 7 0 11 -6 8 -14z m2544 -5 c-3 -8 -6 -5 -6 6
-1 11 2 17 5 13 3 -3 4 -12 1 -19z m-638 -34 c2 -2 -6 -2 -17 -1 -11 0 -25 9
-31 20 -11 17 -11 17 16 1 15 -10 30 -19 32 -20z m528 6 c-14 -11 -29 -20 -34
-20 -10 1 39 39 51 40 5 0 -3 -9 -17 -20z m-2489 -69 c-12 -22 -24 -38 -26
-36 -5 4 37 75 44 75 3 0 -6 -18 -18 -39z m2589 -3 c-3 -7 -5 -2 -5 12 0 14 2
19 5 13 2 -7 2 -19 0 -25z m-247 2 c-8 -5 -19 -10 -25 -10 -5 0 -3 5 5 10 8 5
20 10 25 10 6 0 3 -5 -5 -10z m1191 -13 c-10 -9 -11 -8 -5 6 3 10 9 15 12 12
3 -3 0 -11 -7 -18z m-1286 -2 c6 -2 -19 -3 -55 -4 -36 0 -74 4 -85 8 -19 8
118 4 140 -4z m52 -1 c-3 -3 -12 -4 -19 -1 -8 3 -5 6 6 6 11 1 17 -2 13 -5z
m266 -41 c-3 -7 -9 -13 -13 -13 -4 0 -10 6 -13 13 -3 7 3 13 13 13 10 0 16 -6
13 -13z m-665 -38 c-3 -3 -9 2 -12 12 -6 14 -5 15 5 6 7 -7 10 -15 7 -18z
m-315 -27 c6 -38 32 -128 83 -281 9 -26 14 -50 11 -53 -9 -10 -59 116 -113
285 -7 22 -54 -51 -130 -201 -59 -118 -82 -155 -68 -110 4 11 -1 8 -15 -8 -11
-14 -21 -22 -21 -18 -1 24 171 377 202 416 22 27 45 13 51 -30z m1342 -27 c53
-82 115 -208 115 -233 0 -11 -7 -18 -17 -18 -12 0 -28 22 -48 67 -16 37 -47
91 -70 121 l-40 54 -27 -84 c-26 -84 -70 -193 -81 -204 -3 -4 7 43 24 102 54
197 59 218 59 241 0 16 6 23 20 23 14 0 34 -21 65 -69z m-421 27 c-3 -4 -11
-8 -17 -7 -9 0 -9 2 0 5 7 3 9 13 6 22 -4 14 -3 14 5 2 6 -8 8 -18 6 -22z
m-60 -40 c-3 -4 -12 -8 -20 -8 -8 0 -14 4 -14 8 0 4 9 8 19 8 11 0 17 -4 15
-8z m297 -325 c-12 -20 -14 -14 -5 12 4 9 9 14 11 11 3 -2 0 -13 -6 -23z
m-468 -232 c4 -1 7 -14 7 -30 0 -16 4 -41 10 -55 5 -14 13 -56 16 -93 6 -60 5
-67 -8 -56 -8 7 -18 10 -21 6 -14 -13 -66 -12 -94 2 -15 8 -34 15 -41 15 -7 0
-10 5 -7 10 3 6 4 10 0 10 -3 0 -10 -10 -15 -22 -8 -17 -9 -10 -4 27 3 28 7
59 8 70 2 11 8 43 15 70 l12 50 57 -2 c31 -1 60 -2 65 -2z m617 -350 c0 -29
-309 -120 -462 -136 -114 -12 -76 9 70 37 75 15 189 45 252 66 125 43 140 46
140 33z m-592 -183 c39 -24 61 -64 62 -110 0 -92 6 -84 -66 -86 -43 -1 -63 2
-59 8 6 10 -20 7 -62 -5 -6 -2 -14 2 -16 9 -4 9 -21 13 -51 11 l-46 -3 0 45
c0 130 125 199 238 131z m660 -62 c14 -32 9 -36 -98 -74 -121 -44 -212 -69
-315 -87 -49 -8 -100 -18 -112 -21 -19 -3 -23 0 -23 18 0 42 16 51 137 75 65
13 174 43 243 67 69 24 132 44 141 44 9 1 21 -9 27 -22z m-2200 -158 c39 -39
-17 -100 -58 -63 -24 22 -25 33 -3 57 19 21 44 23 61 6z m641 -348 c43 -30 58
-88 35 -135 -12 -27 -20 -33 -29 -25 -12 10 -612 14 -777 5 -37 -2 -70 0 -73
6 -4 5 -11 6 -17 3 -16 -10 -28 17 -28 62 0 45 27 89 64 104 11 5 195 8 408 6
377 -4 388 -5 417 -26z m1549 -66 c35 -5 42 -10 42 -29 l0 -22 -407 -7 c-549
-9 -982 -7 -1005 5 -29 15 -23 47 10 51 49 6 1316 8 1360 2z m-1907 -484 c159
-60 245 -167 270 -334 11 -73 10 -81 -11 -124 -31 -64 -63 -112 -75 -112 -5 0
-11 -12 -12 -26 -1 -33 -22 -47 -41 -28 -19 20 -26 11 -12 -15 14 -28 -4 -28
-24 0 -8 12 -12 29 -8 37 5 14 4 15 -10 2 -9 -8 -15 -17 -13 -20 1 -3 -1 -15
-6 -27 -9 -26 -44 -31 -53 -8 -3 8 -15 15 -26 15 -12 0 -19 -4 -16 -9 4 -5 -4
-7 -16 -3 -13 3 -19 1 -15 -5 4 -6 -4 -8 -21 -4 -25 5 -25 6 -4 9 12 2 22 8
22 13 0 15 -73 9 -113 -10 -45 -21 -83 -17 -90 10 -6 21 -32 26 -43 7 -5 -7
-3 -8 6 -3 8 5 11 4 7 -2 -4 -6 -31 -10 -62 -9 -57 3 -74 9 -56 21 6 3 11 1
11 -5 0 -6 4 -8 10 -5 13 8 -11 34 -26 28 -20 -7 -63 62 -117 184 -5 12 -7 51
-5 86 14 168 154 320 330 357 58 12 159 3 219 -20z m1457 -45 c2 -2 0 -14 -3
-27 l-6 -24 -452 -2 c-249 -1 -458 2 -466 7 -17 11 -6 48 17 54 17 4 905 -4
910 -8z m-599 -363 c11 -21 3 -39 -19 -42 -8 -1 -126 -2 -262 -1 l-248 1 0 24
c0 13 6 27 13 29 6 3 123 6 259 6 229 1 248 0 257 -17z m351 -302 l0 -30 -339
0 c-218 0 -342 4 -346 10 -3 6 -3 19 0 30 6 19 16 20 346 20 l339 0 0 -30z
m-2766 -359 c4 -5 -3 -7 -14 -4 -23 6 -26 13 -6 13 8 0 17 -4 20 -9z m4656
-21 c0 -5 -4 -10 -10 -10 -5 0 -10 5 -10 10 0 6 5 10 10 10 6 0 10 -4 10 -10z
m185 -98 c-3 -3 -11 0 -18 7 -9 10 -8 11 6 5 10 -3 15 -9 12 -12z m120 -32 c3
-5 1 -10 -4 -10 -6 0 -11 5 -11 10 0 6 2 10 4 10 3 0 8 -4 11 -10z m65 -34 c0
-2 -7 -6 -15 -10 -8 -3 -15 -1 -15 4 0 6 7 10 15 10 8 0 15 -2 15 -4z m50 -5
c0 -11 -31 -24 -38 -16 -3 3 0 5 7 5 7 0 9 5 6 10 -3 6 1 10 9 10 9 0 16 -4
16 -9z m137 -58 c-10 -9 -57 -10 -57 -1 0 4 14 8 32 8 17 0 28 -3 25 -7z m83
-37 c0 -3 -4 -8 -10 -11 -5 -3 -10 -1 -10 4 0 6 5 11 10 11 6 0 10 -2 10 -4z
m60 -10 c0 -2 -9 -6 -20 -9 -11 -3 -20 -1 -20 4 0 5 9 9 20 9 11 0 20 -2 20
-4z m130 -28 c0 -19 -2 -20 -10 -8 -13 19 -13 30 0 30 6 0 10 -10 10 -22z m34
-27 c3 -5 -3 -11 -13 -14 -14 -3 -18 -1 -14 9 6 16 19 18 27 5z m346 -61 c0
-5 -5 -10 -11 -10 -5 0 -7 5 -4 10 3 6 8 10 11 10 2 0 4 -4 4 -10z"/>
<path d="M3182 8878 c-13 -13 -16 -47 -6 -72 5 -14 31 -16 183 -16 190 0 201
3 201 50 0 47 -12 50 -195 50 -120 0 -175 -4 -183 -12z"/>
<path d="M4686 8507 c3 -10 9 -15 12 -12 3 3 0 11 -7 18 -10 9 -11 8 -5 -6z"/>
<path d="M3504 7929 c-3 -6 -2 -15 3 -20 5 -5 9 -1 9 11 0 23 -2 24 -12 9z"/>
<path d="M3446 7863 c-9 -9 -7 -23 2 -23 5 0 16 6 26 13 16 12 16 13 -2 14
-11 1 -23 -1 -26 -4z"/>
<path d="M4825 7840 l-40 -7 40 -1 c22 0 58 3 80 7 l40 9 -40 -1 c-22 0 -58
-3 -80 -7z"/>
<path d="M4685 7799 c-62 -30 -64 -40 -4 -18 57 22 84 39 59 39 -8 -1 -33 -10
-55 -21z"/>
<path d="M4535 7722 c-84 -53 -157 -82 -208 -84 l-44 -2 -11 -81 c-15 -103
-15 -342 -1 -457 l12 -88 33 0 c32 0 34 -2 34 -34 0 -51 27 -181 44 -215 9
-16 16 -39 16 -51 0 -11 5 -20 11 -20 6 0 8 11 5 28 -3 15 -13 84 -22 154
l-17 127 31 26 c22 18 42 54 68 123 20 53 38 99 40 100 1 2 47 -4 101 -14 66
-12 149 -18 253 -17 175 0 266 18 368 73 30 16 56 29 57 27 1 -1 14 -44 29
-95 30 -106 68 -187 96 -204 25 -16 25 -47 5 -195 -23 -177 -27 -225 -15 -218
5 3 10 19 10 35 0 16 4 39 9 52 15 37 32 126 45 228 l11 95 31 -3 31 -3 7 63
c24 231 17 359 -25 438 -22 42 -25 36 -5 -11 8 -19 17 -54 20 -79 l7 -45 -15
33 c-16 35 -25 39 -44 20 -10 -10 -15 -10 -20 -1 -5 9 -17 3 -40 -18 -38 -36
-40 -31 -8 19 13 20 35 60 49 87 24 49 24 51 7 72 l-18 23 -6 -23 c-10 -39
-64 -96 -86 -90 -11 3 -18 8 -16 12 2 3 -18 6 -44 7 -32 0 -47 -3 -43 -10 3
-6 0 -6 -7 1 -10 9 -21 6 -48 -15 -35 -27 -36 -16 -1 23 20 23 94 159 104 193
11 37 -18 25 -37 -16 -16 -34 -120 -152 -134 -152 -4 0 -1 6 5 14 16 19 -429
13 -671 -10 -57 -5 -82 -3 -93 6 -8 7 -13 15 -11 19 3 4 -4 8 -15 8 -11 1 -23
-5 -26 -13 -9 -25 -20 -15 -21 21 -1 30 2 36 26 41 65 14 120 37 193 80 44 25
79 48 79 50 0 12 -31 -1 -85 -34z m-168 -184 c-3 -7 -5 -2 -5 12 0 14 2 19 5
13 2 -7 2 -19 0 -25z"/>
<path d="M4418 6658 c-6 -16 3 -58 11 -58 4 0 7 16 7 35 0 34 -10 47 -18 23z"/>
<path d="M5391 6524 c-7 -30 -11 -57 -9 -60 3 -2 11 21 18 51 7 30 11 57 8 60
-3 3 -10 -20 -17 -51z"/>
<path d="M4506 6447 c3 -10 9 -15 12 -12 3 3 0 11 -7 18 -10 9 -11 8 -5 -6z"/>
<path d="M3721 6434 c0 -11 3 -14 6 -6 3 7 2 16 -1 19 -3 4 -6 -2 -5 -13z"/>
<path d="M4490 6288 c5 -23 6 -47 3 -52 -4 -5 -1 -6 5 -2 11 7 5 74 -8 89 -4
5 -4 -11 0 -35z"/>
<path d="M4670 6216 c0 -2 8 -10 18 -17 15 -13 16 -12 3 4 -13 16 -21 21 -21
13z"/>
<path d="M3190 6570 c0 -5 5 -10 11 -10 5 0 7 5 4 10 -3 6 -8 10 -11 10 -2 0
-4 -4 -4 -10z"/>
<path d="M3490 3197 c0 -9 43 -48 65 -58 11 -6 8 0 -8 11 -15 12 -24 27 -20
33 3 7 3 9 -2 5 -4 -4 -14 -3 -22 3 -7 6 -13 9 -13 6z"/>
<path d="M3826 3155 c-3 -8 -1 -15 4 -15 6 0 10 7 10 15 0 8 -2 15 -4 15 -2 0
-6 -7 -10 -15z"/>
<path d="M3800 3119 c0 -5 5 -7 10 -4 6 3 10 8 10 11 0 2 -4 4 -10 4 -5 0 -10
-5 -10 -11z"/>
<path d="M3447 3099 c7 -9 11 -18 8 -21 -9 -9 23 -30 35 -23 16 10 2 25 -17
18 -10 -4 -14 -2 -10 4 4 6 -1 17 -11 24 -15 12 -16 12 -5 -2z"/>
<path d="M3788 3070 c-31 -32 -33 -45 -4 -34 9 3 13 11 10 16 -4 6 4 19 17 29
13 10 20 19 16 19 -5 0 -22 -14 -39 -30z"/>
<path d="M3506 3052 c-3 -4 4 -9 15 -9 23 -2 25 3 4 10 -8 4 -16 3 -19 -1z"/>
<path d="M8025 8656 c-123 -29 -222 -78 -311 -156 -77 -67 -156 -207 -179
-318 -40 -187 -3 -360 111 -511 58 -77 115 -122 213 -170 366 -177 785 55 842
465 11 81 1 188 -26 266 l-15 45 44 45 c42 44 77 119 75 162 0 19 -1 19 -12
-4 -6 -14 -15 -29 -19 -35 -4 -5 -22 -30 -40 -55 -38 -52 -141 -109 -198 -110
-91 0 -200 71 -244 157 -9 18 -23 36 -31 40 -27 16 -20 147 9 165 20 13 -3 20
-81 24 -46 2 -103 -2 -138 -10z m195 -17 c0 -14 -18 -20 -24 -7 -3 7 -3 -5 1
-27 3 -22 3 -37 -1 -34 -3 3 -8 24 -10 46 -4 36 -2 40 15 36 10 -3 19 -9 19
-14z m-92 4 c-10 -2 -26 -2 -35 0 -10 3 -2 5 17 5 19 0 27 -2 18 -5z m-148
-19 c0 -3 -13 -10 -30 -15 -16 -6 -28 -15 -25 -19 3 -5 0 -12 -6 -16 -8 -4 -9
-3 -5 4 4 7 1 12 -6 13 -7 0 5 9 27 20 45 21 45 21 45 13z m366 -347 c26 -20
51 -37 56 -37 6 0 -5 -19 -23 -42 -60 -77 -301 -348 -309 -348 -4 0 -15 10
-23 23 -8 12 -76 87 -151 167 -75 80 -136 148 -136 151 0 3 25 32 55 65 l54
59 86 -86 85 -86 108 109 c66 67 106 115 104 126 -2 9 8 -1 22 -24 14 -22 46
-57 72 -77z"/>
<path d="M1770 8301 c-100 -27 -199 -84 -269 -154 -77 -76 -121 -148 -157
-252 -24 -69 -28 -96 -28 -200 -1 -97 3 -133 21 -190 77 -244 286 -409 534
-422 201 -11 372 69 494 231 91 122 129 237 129 391 0 95 -4 121 -28 190 -15
44 -43 106 -62 137 -35 57 -124 161 -124 144 0 -4 -8 2 -18 14 -16 20 -22 21
-43 11 -22 -11 -23 -11 -5 3 17 14 15 16 -30 45 -27 17 -57 29 -67 27 -9 -2
-15 -1 -12 3 9 15 -72 32 -170 36 -76 4 -116 0 -165 -14z m142 -5 c4 3 8 1 8
-4 0 -6 -19 -12 -42 -15 -24 -3 -56 -8 -73 -11 -27 -5 -27 -5 -5 3 21 8 22 9
5 10 -16 1 -17 3 -5 11 9 6 20 5 29 -3 12 -10 14 -9 9 4 -6 14 -1 15 30 8 20
-4 40 -6 44 -3z m125 -12 c-3 -3 -12 -4 -19 -1 -8 3 -5 6 6 6 11 1 17 -2 13
-5z m-277 -14 c-8 -5 -22 -10 -30 -10 -13 0 -13 1 0 10 8 5 22 10 30 10 13 0
13 -1 0 -10z m180 -10 c0 -5 -4 -10 -10 -10 -5 0 -10 5 -10 10 0 6 5 10 10 10
6 0 10 -4 10 -10z m107 4 c-3 -3 -12 -4 -19 -1 -8 3 -5 6 6 6 11 1 17 -2 13
-5z m-187 -34 c0 -5 -5 -10 -11 -10 -5 0 -7 5 -4 10 3 6 8 10 11 10 2 0 4 -4
4 -10z m73 -8 c-3 -8 -10 -9 -17 -4 -6 5 -18 12 -26 15 -8 3 -1 4 16 4 21 -1
30 -6 27 -15z m262 7 c4 -6 -2 -19 -13 -30 -21 -18 -21 -18 -18 9 2 15 4 28 5
30 3 6 21 1 26 -9z m-224 -16 c13 -16 12 -17 -3 -4 -17 13 -22 21 -14 21 2 0
10 -8 17 -17z m-71 -3 c8 -5 11 -10 5 -10 -5 0 -17 5 -25 10 -8 5 -10 10 -5
10 6 0 17 -5 25 -10z m38 -22 c-21 -7 -29 -18 -34 -46 -13 -78 -64 -139 -156
-190 -53 -30 -78 -25 -78 13 1 76 81 174 162 196 24 6 57 18 73 25 17 7 37 13
45 13 8 0 3 -5 -12 -11z m39 -33 c73 -47 83 -56 107 -98 28 -47 44 -117 28
-117 -24 0 -142 102 -142 122 0 5 -4 7 -9 4 -13 -9 -28 15 -36 56 -6 32 -2 58
10 58 2 0 21 -11 42 -25z m-43 -109 c14 -24 55 -70 91 -101 36 -32 65 -65 65
-74 0 -10 3 -12 8 -4 5 8 21 8 59 1 47 -9 53 -14 63 -43 12 -37 3 -96 -11 -73
-7 11 -9 11 -9 -1 0 -10 -3 -11 -13 -3 -7 6 -19 7 -26 3 -16 -10 -59 9 -64 29
-3 13 -5 13 -9 0 -3 -8 -14 -37 -23 -64 -10 -27 -32 -65 -50 -85 -28 -31 -39
-35 -92 -39 -43 -3 -69 0 -92 12 -59 31 -103 125 -113 245 -3 32 2 38 55 75
62 43 126 119 127 149 0 26 6 21 34 -27z m-237 -188 c6 -8 6 -29 1 -55 -7 -33
-14 -43 -29 -43 -10 0 -19 3 -19 8 0 4 -11 12 -24 18 -21 10 -23 9 -18 -9 3
-13 1 -18 -6 -13 -6 3 -12 -3 -15 -16 -2 -13 -5 5 -6 39 -1 58 0 62 27 71 38
15 78 14 89 0z m313 -321 l0 -44 82 -16 c120 -24 168 -66 171 -153 l2 -49
-361 -3 -362 -2 -5 22 c-10 40 10 101 42 130 29 26 93 49 172 62 29 5 38 12
43 32 4 14 4 29 1 34 -10 16 14 20 57 9 35 -10 52 -9 93 4 28 8 53 15 58 16 4
1 7 -19 7 -42z"/>
<path d="M2170 8220 c0 -5 5 -10 10 -10 6 0 10 5 10 10 0 6 -4 10 -10 10 -5 0
-10 -4 -10 -10z"/>
<path d="M2092 7820 c0 -14 2 -19 5 -12 2 6 2 18 0 25 -3 6 -5 1 -5 -13z"/>
<path d="M8459 6811 c-195 -53 -354 -219 -388 -405 -49 -267 76 -504 319 -605
83 -35 221 -40 323 -12 109 30 169 62 235 129 164 164 201 435 89 646 -109
206 -350 308 -578 247z m125 -102 c7 -35 26 -30 26 7 0 20 5 24 30 24 25 0 30
-4 30 -25 0 -22 4 -25 35 -25 20 0 51 -7 70 -14 l35 -15 0 -251 c0 -206 -2
-252 -14 -256 -9 -4 -17 -30 -21 -75 l-7 -69 -199 0 -199 0 0 329 c0 372 -8
341 86 341 47 0 55 3 53 18 -3 36 1 42 35 42 29 0 34 -4 40 -31z"/>
<path d="M8500 6609 c0 -18 114 -26 139 -10 10 6 -12 10 -62 13 -43 1 -77 0
-77 -3z"/>
<path d="M7485 6749 c-22 -21 -35 -39 -29 -39 12 0 80 68 73 74 -2 2 -22 -13
-44 -35z"/>
<path d="M7158 6764 c11 -8 23 -9 34 -3 25 13 23 15 -16 15 -29 0 -32 -2 -18
-12z"/>
<path d="M2322 6635 c0 -16 2 -22 5 -12 2 9 2 23 0 30 -3 6 -5 -1 -5 -18z"/>
<path d="M1215 6475 c-171 -47 -302 -190 -341 -374 -33 -158 -2 -286 98 -408
145 -175 371 -225 579 -127 173 81 269 242 269 450 0 220 -123 383 -343 458
-58 20 -191 20 -262 1z m182 -204 c63 -50 121 -114 145 -160 10 -20 17 -29 16
-21 -4 24 21 60 41 60 38 0 54 -148 25 -234 -24 -69 -102 -150 -170 -175 -190
-72 -393 52 -411 250 -10 102 14 168 55 155 21 -7 22 -11 16 -90 -8 -94 2
-134 46 -195 70 -96 193 -116 305 -50 75 45 106 104 103 198 l-1 66 -6 -62
c-6 -64 -13 -75 -71 -105 -14 -7 -34 -21 -44 -31 -24 -20 -78 -37 -124 -37
-68 0 -143 59 -183 145 -24 52 -24 60 6 123 25 55 163 202 189 202 8 0 36 -17
63 -39z"/>
<path d="M7223 6118 c-13 -6 -23 -14 -23 -18 0 -4 -16 -11 -36 -15 -27 -5 -41
-2 -55 11 -18 16 -19 16 -13 1 14 -38 79 -34 129 7 33 27 32 30 -2 14z"/>
<path d="M7535 6063 c-58 -54 -59 -54 -11 -19 40 30 87 77 74 76 -2 -1 -30
-26 -63 -57z"/>
<path d="M7420 5980 c-13 -8 -13 -10 2 -10 9 0 20 5 23 10 8 13 -5 13 -25 0z"/>
<path d="M7090 5522 c0 -25 59 -55 81 -41 11 7 9 9 -7 9 -12 0 -33 9 -48 21
-14 11 -26 16 -26 11z"/>
<path d="M7504 5459 c-16 -17 -46 -40 -67 -51 -22 -10 -37 -22 -34 -24 9 -9
60 22 107 65 25 22 40 40 34 41 -5 0 -23 -14 -40 -31z"/>
<path d="M8401 5290 c-114 -41 -192 -113 -249 -230 -30 -62 -37 -89 -40 -155
-8 -146 34 -251 141 -353 84 -79 167 -112 282 -112 221 0 392 145 436 368 42
219 -83 422 -300 486 -76 22 -202 20 -270 -4z m189 -215 c6 -36 31 -43 66 -21
24 16 24 16 41 -18 9 -20 29 -40 45 -47 32 -13 35 -29 12 -64 -20 -31 -14 -50
17 -50 21 0 24 -5 27 -42 3 -39 1 -42 -25 -45 -33 -4 -41 -29 -22 -65 12 -22
11 -27 -6 -39 -37 -26 -65 -56 -65 -70 0 -18 -14 -18 -30 1 -7 8 -19 15 -28
15 -19 0 -52 -29 -52 -45 0 -7 -7 -15 -15 -19 -11 -4 -21 5 -32 29 -21 44 -48
53 -77 26 -24 -22 -36 -19 -36 10 0 10 -16 30 -35 45 -34 26 -35 28 -19 51 20
31 12 53 -20 53 -21 0 -26 6 -31 34 -9 44 8 76 35 69 25 -7 27 15 4 58 -8 17
-14 32 -12 32 52 26 64 37 73 65 10 34 41 44 51 17 14 -35 64 -9 64 33 0 20 4
23 32 20 28 -2 34 -8 38 -33z"/>
<path d="M8496 5020 c-38 -12 -94 -66 -114 -110 -18 -41 -17 -122 4 -161 17
-35 78 -87 110 -95 52 -13 129 1 168 31 124 95 85 300 -64 334 -53 12 -65 12
-104 1z m133 -59 c45 -32 64 -67 65 -120 2 -107 -112 -182 -204 -134 -117 61
-102 243 22 273 42 10 86 3 117 -19z"/>
<path d="M2052 5040 c0 -19 2 -27 5 -17 2 9 2 25 0 35 -3 9 -5 1 -5 -18z"/>
<path d="M7080 5011 c0 -6 4 -13 10 -16 6 -3 7 1 4 9 -7 18 -14 21 -14 7z"/>
<path d="M1354 4981 c-103 -26 -197 -111 -234 -209 -30 -79 -25 -203 11 -282
32 -68 96 -132 169 -168 46 -23 67 -27 135 -26 101 0 156 24 228 96 82 82 102
132 102 253 -1 85 -4 107 -25 150 -54 110 -167 185 -289 191 -36 2 -80 0 -97
-5z m45 -188 l24 -22 45 40 c25 21 51 39 58 39 19 0 94 -90 94 -112 0 -11 -15
-38 -34 -60 l-34 -40 46 -44 46 -44 -53 -50 c-59 -55 -54 -55 -117 3 l-32 29
-56 -46 c-31 -25 -60 -46 -64 -46 -4 0 -17 16 -30 36 -17 26 -29 35 -42 31
-11 -3 -24 1 -30 9 -9 10 -2 24 32 61 75 83 73 77 32 115 -41 39 -40 47 19
121 34 41 25 43 96 -20z"/>
<path d="M7576 4963 c-6 -14 -5 -15 5 -6 7 7 10 15 7 18 -3 3 -9 -2 -12 -12z"/>
<path d="M2042 4950 c0 -14 2 -19 5 -12 2 6 2 18 0 25 -3 6 -5 1 -5 -13z"/>
<path d="M7212 4939 c-30 -17 -35 -18 -55 -4 -34 24 -43 17 -12 -9 30 -26 38
-25 94 17 32 23 15 21 -27 -4z"/>
<path d="M7491 4753 c-1 -6 -4 -20 -7 -30 -5 -17 -5 -17 6 0 6 10 9 23 6 30
-3 9 -5 9 -5 0z"/>
<path d="M7466 4685 c-9 -26 -7 -32 5 -12 6 10 9 21 6 23 -2 3 -7 -2 -11 -11z"/>
<path d="M7385 4580 c3 -5 8 -10 11 -10 2 0 4 5 4 10 0 6 -5 10 -11 10 -5 0
-7 -4 -4 -10z"/>
<path d="M1991 4414 c0 -11 3 -14 6 -6 3 7 2 16 -1 19 -3 4 -6 -2 -5 -13z"/>
<path d="M1973 4190 c0 -41 2 -58 4 -37 2 20 2 54 0 75 -2 20 -4 3 -4 -38z"/>
<path d="M1954 3795 c2 -135 6 -171 25 -227 12 -38 26 -68 32 -68 6 0 6 7 -1
19 -23 44 -43 164 -50 296 l-8 140 2 -160z"/>
<path d="M2476 3775 c-3 -8 -1 -15 4 -15 6 0 10 7 10 15 0 8 -2 15 -4 15 -2 0
-6 -7 -10 -15z"/>
<path d="M1195 2905 c-17 -6 -48 -32 -69 -56 -22 -24 -96 -104 -165 -177 -69
-74 -127 -137 -129 -141 -1 -4 44 -50 100 -102 127 -117 843 -753 1108 -984
175 -152 457 -401 470 -415 19 -19 151 -130 175 -147 25 -17 34 -19 47 -9 15
11 15 13 -3 24 -10 7 -19 17 -19 23 0 8 6 7 16 -2 26 -22 47 -20 41 3 -4 13
-1 18 8 15 16 -7 59 38 51 52 -4 7 -1 8 8 5 11 -4 16 0 16 12 0 9 2 15 5 12 6
-6 212 198 226 224 18 34 -3 69 -86 141 -75 65 -583 517 -795 707 -47 42 -166
145 -265 230 -99 85 -224 193 -277 241 -53 48 -139 122 -190 164 -51 43 -115
100 -143 126 -62 59 -91 71 -130 54z m88 -83 c34 -32 93 -85 132 -117 103 -88
323 -285 555 -495 258 -235 280 -255 253 -239 -48 30 -833 698 -995 847 l-27
25 -47 -38 c-45 -37 -46 -38 -29 -9 28 44 67 84 83 84 7 0 41 -26 75 -58z
m1465 -1907 c-3 -3 -9 2 -12 12 -6 14 -5 15 5 6 7 -7 10 -15 7 -18z"/>
<path d="M2240 2800 c0 -5 5 -10 10 -10 6 0 10 5 10 10 0 6 -4 10 -10 10 -5 0
-10 -4 -10 -10z"/>
<path d="M6562 2780 c0 -14 2 -19 5 -12 2 6 2 18 0 25 -3 6 -5 1 -5 -13z"/>
<path d="M6595 2730 c-3 -5 1 -10 10 -10 9 0 13 5 10 10 -3 6 -8 10 -10 10 -2
0 -7 -4 -10 -10z"/>
<path d="M2060 2706 c7 -7 13 -7 20 0 6 6 3 10 -10 10 -13 0 -16 -4 -10 -10z"/>
<path d="M6730 2711 c0 -6 5 -13 10 -16 6 -3 10 1 10 9 0 9 -4 16 -10 16 -5 0
-10 -4 -10 -9z"/>
<path d="M2170 2673 c0 -23 15 -39 24 -25 3 5 -1 18 -9 28 -14 18 -14 18 -15
-3z"/>
<path d="M6820 2640 c8 -5 20 -10 25 -10 6 0 3 5 -5 10 -8 5 -19 10 -25 10 -5
0 -3 -5 5 -10z"/>
<path d="M6890 2630 c0 -5 5 -10 10 -10 6 0 10 5 10 10 0 6 -4 10 -10 10 -5 0
-10 -4 -10 -10z"/>
<path d="M6930 2620 c0 -5 5 -10 10 -10 6 0 10 5 10 10 0 6 -4 10 -10 10 -5 0
-10 -4 -10 -10z"/>
<path d="M7210 2490 c0 -5 5 -10 10 -10 6 0 10 5 10 10 0 6 -4 10 -10 10 -5 0
-10 -4 -10 -10z"/>
<path d="M7275 2469 c-4 -6 -5 -12 -2 -15 2 -3 7 2 10 11 7 17 1 20 -8 4z"/>
<path d="M7350 2455 c0 -5 5 -17 10 -25 5 -8 10 -10 10 -5 0 6 -5 17 -10 25
-5 8 -10 11 -10 5z"/>
<path d="M9067 2341 c-18 -9 -167 -108 -332 -220 -165 -112 -559 -375 -876
-586 -317 -211 -579 -391 -583 -400 -13 -36 -5 -75 23 -107 15 -18 74 -96 131
-173 99 -135 120 -159 120 -135 0 6 -5 8 -12 4 -8 -5 -7 0 2 11 14 17 13 18
-2 12 -12 -4 -21 0 -28 13 -7 14 -7 20 0 20 5 0 10 -4 10 -10 0 -5 9 -10 21
-10 15 0 19 -5 15 -15 -3 -9 0 -15 9 -15 8 0 15 6 15 14 0 8 4 18 10 21 5 3 7
0 4 -9 -3 -8 358 229 803 526 444 296 856 571 915 610 95 62 106 72 97 89 -15
29 -219 321 -241 345 -26 30 -62 35 -101 15z m81 -48 c2 -8 -5 -13 -16 -13
-11 0 -211 -127 -445 -282 -577 -383 -685 -453 -607 -391 63 51 740 520 943
656 71 46 115 57 125 30z"/>
<path d="M7715 2310 c3 -5 8 -10 11 -10 2 0 4 5 4 10 0 6 -5 10 -11 10 -5 0
-7 -4 -4 -10z"/>
<path d="M7770 2290 c0 -5 5 -10 10 -10 6 0 10 5 10 10 0 6 -4 10 -10 10 -5 0
-10 -4 -10 -10z"/>
<path d="M7855 2291 c-3 -5 -1 -12 5 -16 5 -3 10 1 10 9 0 18 -6 21 -15 7z"/>
<path d="M3659 2256 c-122 -67 -308 -214 -427 -338 -88 -93 -71 -86 25 10 54
53 109 106 123 118 98 78 163 123 172 118 6 -4 8 -2 5 3 -4 6 7 16 23 23 16 7
39 21 52 31 12 11 26 18 31 16 10 -3 64 41 56 46 -2 2 -29 -11 -60 -27z"/>
<path d="M8065 2260 c3 -5 11 -10 16 -10 6 0 7 5 4 10 -3 6 -11 10 -16 10 -6
0 -7 -4 -4 -10z"/>
<path d="M8028 2243 c7 -3 16 -2 19 1 4 3 -2 6 -13 5 -11 0 -14 -3 -6 -6z"/>
<path d="M8137 2224 c6 -16 23 -19 23 -3 0 5 5 7 10 4 6 -4 8 -11 5 -16 -3 -5
1 -6 10 -3 21 9 5 25 -28 28 -18 2 -24 -1 -20 -10z"/>
<path d="M8251 2231 c-8 -5 -21 -7 -30 -4 -13 4 -14 3 -2 -5 14 -10 51 0 51
13 0 7 -3 6 -19 -4z"/>
</g>
</svg>
